<?xml version="1.0" encoding="UTF-8" standalone="no"?>
<svg
   xmlns:dc="http://purl.org/dc/elements/1.1/"
   xmlns:cc="http://creativecommons.org/ns#"
   xmlns:rdf="http://www.w3.org/1999/02/22-rdf-syntax-ns#"
   xmlns:svg="http://www.w3.org/2000/svg"
   xmlns="http://www.w3.org/2000/svg"
   xmlns:sodipodi="http://sodipodi.sourceforge.net/DTD/sodipodi-0.dtd"
   xmlns:inkscape="http://www.inkscape.org/namespaces/inkscape"
   id="a87032b8-5b37-4b7e-a4d9-4dbfbe394641"
   data-name="Layer 1"
   width="384.01486"
   height="380.30707"
   viewBox="0 0 384.01487 380.30706"
   version="1.1"
   sodipodi:docname="undraw_Access_account_re_8spm.svg"
   inkscape:export-filename="/home/petercosta/projetos/todots/src/assets/acc.png"
   inkscape:export-xdpi="96"
   inkscape:export-ydpi="96"
   inkscape:version="1.0.1 (3bc2e813f5, 2020-09-07)">
  <metadata
     id="metadata150">
    <rdf:RDF>
      <cc:Work
         rdf:about="">
        <dc:format>image/svg+xml</dc:format>
        <dc:type
           rdf:resource="http://purl.org/dc/dcmitype/StillImage" />
      </cc:Work>
    </rdf:RDF>
  </metadata>
  <defs
     id="defs148" />
  <sodipodi:namedview
     pagecolor="#ffffff"
     bordercolor="#666666"
     borderopacity="1"
     objecttolerance="10"
     gridtolerance="10"
     guidetolerance="10"
     inkscape:pageopacity="0"
     inkscape:pageshadow="2"
     inkscape:window-width="1920"
     inkscape:window-height="1025"
     id="namedview146"
     showgrid="false"
     inkscape:zoom="0.79979066"
     inkscape:cx="-224.06515"
     inkscape:cy="93.062041"
     inkscape:window-x="0"
     inkscape:window-y="25"
     inkscape:window-maximized="1"
     inkscape:current-layer="a87032b8-5b37-4b7e-a4d9-4dbfbe394641" />
  <rect
     style="fill:none;fill-opacity:1;fill-rule:evenodd;stroke-width:0.514685"
     id="rect189"
     width="384.01486"
     height="380.30707"
     x="6"
     y="0"
     inkscape:export-xdpi="96"
     inkscape:export-ydpi="96" />
  <path
     id="fa3b9e12-7275-481e-bee9-64fd9595a50d"
     data-name="Path 1"
     d="m 48.475685,319.22909 -3.25582,-12.84073 a 166.74634,166.74634 0 0 0 -17.69027,-6.34691 l -0.41096,5.96774 -1.66664,-6.57475 c -7.45518,-2.13116 -12.52705,-3.06873 -12.52705,-3.06873 0,0 6.84919,26.05124 21.21957,45.96746 l 16.7428,2.94121 -13.00702,1.87556 a 67.462441,67.462441 0 0 0 5.81635,6.16525 c 20.90242,19.40206 44.1842,28.30401 52.0007,19.88249 7.816515,-8.42152 -2.7918,-30.97617 -23.69421,-50.37623 -6.47993,-6.0149 -14.62003,-10.84157 -22.76858,-14.64139 z"
     fill="#f2f2f2"
     style="stroke-width:0.496317"
     inkscape:export-xdpi="96"
     inkscape:export-ydpi="96" />
  <path
     id="bde08021-c30f-4979-a9d8-cb90b72b5ca2"
     data-name="Path 2"
     d="m 79.438965,305.28154 3.85044,-12.67496 a 166.73273,166.73273 0 0 0 -11.862,-14.57734 l -3.4365,4.89617 1.97137,-6.48985 c -5.28131,-5.67587 -9.13819,-9.09997 -9.13819,-9.09997 0,0 -7.60111,25.84175 -5.59599,50.31866 l 12.81244,11.17211 -12.10618,-5.11803 a 67.458905,67.458905 0 0 0 1.79368,8.28553 c 7.86465,27.41361 23.19343,47.06829 34.23749,43.8998 11.044065,-3.1685 13.621945,-27.96005 5.75729,-55.37368 -2.43791,-8.49843 -6.91171,-16.83807 -11.92305,-24.30219 z"
     fill="#f2f2f2"
     style="stroke-width:0.496317"
     inkscape:export-xdpi="96"
     inkscape:export-ydpi="96" />
  <path
     id="b3ac2088-de9b-4f7f-bc99-0ed9705c1a9d"
     data-name="Path 22"
     d="m 286.88658,94.712812 h -2.03094 V 39.075592 A 32.202582,32.202582 0 0 0 252.65306,6.8730221 H 134.77413 A 32.202582,32.202582 0 0 0 102.57155,39.075592 V 344.311 a 32.202582,32.202582 0 0 0 32.20258,32.20257 H 252.65306 A 32.202582,32.202582 0 0 0 284.85515,344.311 V 134.31648 h 2.03094 z"
     fill="#e6e6e6"
     style="stroke-width:0.496317"
     inkscape:export-xdpi="96"
     inkscape:export-ydpi="96" />
  <path
     id="b2715b96-3117-487c-acc0-20904544b5b7"
     data-name="Path 23"
     d="m 253.95242,15.247882 h -15.38584 a 11.425234,11.425234 0 0 1 -10.57953,15.74022 h -67.53146 a 11.425234,11.425234 0 0 1 -10.57852,-15.74022 h -14.37139 a 24.048578,24.048578 0 0 0 -24.04856,24.04857 V 344.08864 a 24.048578,24.048578 0 0 0 24.04856,24.04858 H 253.95242 A 24.048578,24.048578 0 0 0 278.001,344.08864 v 0 -304.792698 a 24.048578,24.048578 0 0 0 -24.04858,-24.04806 z"
     fill="#ffffff"
     style="fill:#875ec6;fill-opacity:1;stroke-width:0.496317"
     inkscape:export-xdpi="96"
     inkscape:export-ydpi="96" />
  <path
     id="b06d66ec-6c84-45dd-8c27-1263a6253192"
     data-name="Path 6"
     d="m 179.6358,136.66161 a 12.128516,12.128516 0 0 1 6.06995,-10.50905 12.134968,12.134968 0 1 0 0,21.01658 12.126983,12.126983 0 0 1 -6.06995,-10.50753 z"
     fill="#cccccc"
     style="stroke-width:0.496317"
     inkscape:export-xdpi="96"
     inkscape:export-ydpi="96" />
  <path
     id="e73810fe-4cf4-40cc-8c7c-ca544ce30bd4"
     data-name="Path 7"
     d="m 194.89112,136.66161 a 12.12799,12.12799 0 0 1 6.06996,-10.50905 12.134968,12.134968 0 1 0 0,21.01658 12.126983,12.126983 0 0 1 -6.06996,-10.50753 z"
     fill="#cccccc"
     style="stroke-width:0.496317"
     inkscape:export-xdpi="96"
     inkscape:export-ydpi="96" />
  <circle
     id="a4813fcf-056e-4514-bb8b-e6506f49341f"
     data-name="Ellipse 1"
     cx="209.79999"
     cy="136.66109"
     r="12.13497"
     fill="#6c63ff"
     style="fill:#dcdcdc;fill-opacity:1;stroke-width:0.496317"
     inkscape:export-xdpi="96"
     inkscape:export-ydpi="96" />
  <path
     id="bbe451c3-febc-41ba-8083-4c8307a2e73e"
     data-name="Path 8"
     d="m 230.08054,174.56338 h -70.72528 a 2.5426357,2.5426357 0 0 1 -2.53967,-2.53965 v -70.72528 a 2.5426357,2.5426357 0 0 1 2.53967,-2.539658 h 70.72528 a 2.5426357,2.5426357 0 0 1 2.53964,2.539658 v 70.72528 a 2.5426357,2.5426357 0 0 1 -2.53964,2.53965 z M 159.35526,99.775262 a 1.5251844,1.5251844 0 0 0 -1.5237,1.523688 v 70.72528 a 1.5251844,1.5251844 0 0 0 1.5237,1.5237 h 70.72528 a 1.5251844,1.5251844 0 0 0 1.52368,-1.5237 v -70.72528 a 1.5251844,1.5251844 0 0 0 -1.52368,-1.523688 z"
     fill="#cccccc"
     style="stroke-width:0.496317"
     inkscape:export-xdpi="96"
     inkscape:export-ydpi="96" />
  <rect
     id="bb28937d-932f-4fdf-befe-f406e51091fe"
     data-name="Rectangle 1"
     x="137.40112"
     y="228.77763"
     width="108.47124"
     height="1.0159622"
     fill="#cccccc"
     style="stroke-width:0.496317"
     inkscape:export-xdpi="96"
     inkscape:export-ydpi="96" />
  <circle
     id="fcef55fc-4968-45b2-93bb-1a1080c85fc7"
     data-name="Ellipse 2"
     cx="140.82675"
     cy="219.00911"
     r="3.425585"
     fill="#6c63ff"
     style="fill:#dcdcdc;fill-opacity:1;stroke-width:0.496317"
     inkscape:export-xdpi="96"
     inkscape:export-ydpi="96" />
  <rect
     id="ff33d889-4c74-4b91-85ef-b4882cc8fe76"
     data-name="Rectangle 2"
     x="137.40112"
     y="263.03156"
     width="108.47124"
     height="1.0159622"
     fill="#cccccc"
     style="stroke-width:0.496317"
     inkscape:export-xdpi="96"
     inkscape:export-ydpi="96" />
  <circle
     id="e8fa0310-b872-4adf-aedd-0c6eda09f3b8"
     data-name="Ellipse 3"
     cx="140.82675"
     cy="253.2635"
     r="3.425585"
     fill="#6c63ff"
     style="fill:#dcdcdc;fill-opacity:1;stroke-width:0.496317"
     inkscape:export-xdpi="96"
     inkscape:export-ydpi="96" />
  <path
     d="m 243.88731,302.03832 h -34.27987 a 2.2358766,2.2358766 0 0 1 -2.23342,-2.23343 v -12.01486 a 2.2358716,2.2358716 0 0 1 2.23342,-2.23344 h 34.27987 a 2.2358666,2.2358666 0 0 1 2.23341,2.23344 v 12.01486 a 2.2358716,2.2358716 0 0 1 -2.23341,2.23343 z"
     fill="#6c63ff"
     id="path119"
     style="fill:#dcdcdc;fill-opacity:1;stroke-width:0.496317"
     inkscape:export-xdpi="96"
     inkscape:export-ydpi="96" />
  <circle
     id="e12ee00d-aa4a-4413-a013-11d20b7f97f7"
     data-name="Ellipse 7"
     cx="152.00079"
     cy="219.00911"
     r="3.425585"
     fill="#6c63ff"
     style="fill:#dcdcdc;fill-opacity:1;stroke-width:0.496317"
     inkscape:export-xdpi="96"
     inkscape:export-ydpi="96" />
  <circle
     id="f58f497e-6949-45c8-be5f-eee2aa0f6586"
     data-name="Ellipse 8"
     cx="163.17493"
     cy="219.00911"
     r="3.425585"
     fill="#6c63ff"
     style="fill:#dcdcdc;fill-opacity:1;stroke-width:0.496317"
     inkscape:export-xdpi="96"
     inkscape:export-ydpi="96" />
  <circle
     id="b4d4939a-c6e6-4f4d-ba6c-e8b05485017d"
     data-name="Ellipse 9"
     cx="152.00079"
     cy="253.2635"
     r="3.425585"
     fill="#6c63ff"
     style="fill:#dcdcdc;fill-opacity:1;stroke-width:0.496317"
     inkscape:export-xdpi="96"
     inkscape:export-ydpi="96" />
  <circle
     id="aff120b1-519b-4e96-ac87-836aa55663de"
     data-name="Ellipse 10"
     cx="163.17493"
     cy="253.2635"
     r="3.425585"
     fill="#6c63ff"
     style="fill:#dcdcdc;fill-opacity:1;stroke-width:0.496317"
     inkscape:export-xdpi="96"
     inkscape:export-ydpi="96" />
  <path
     id="fa3b9e12-7275-481e-bee9-64fd9595a50d-3"
     data-name="Path 1"
     d="m 322.10088,307.79351 10.29515,-8.33633 A 166.74634,166.74634 0 0 0 330.747,280.73527 l -5.59085,2.12726 5.27152,-4.26802 c -1.18852,-7.66218 -2.46227,-12.66024 -2.46227,-12.66024 0,0 -20.78461,17.13412 -32.84742,38.52695 l 4.3444,16.43465 -7.15275,-11.02445 a 67.462441,67.462441 0 0 0 -3.16103,7.86436 c -8.85912,27.10844 -7.18728,51.97793 3.73441,55.54675 10.92168,3.56882 26.9564,-15.51353 35.8137,-42.62111 2.74649,-8.40388 3.71848,-17.81735 3.75457,-26.80824 z"
     fill="#f2f2f2"
     style="stroke-width:0.496317"
     inkscape:export-xdpi="96"
     inkscape:export-ydpi="96" />
  <path
     id="bde08021-c30f-4979-a9d8-cb90b72b5ca2-6"
     data-name="Path 2"
     d="m 347.73833,330.06413 13.12205,-1.81447 a 166.73273,166.73273 0 0 0 8.2661,-16.87831 l -5.88553,-1.0689 6.71874,-0.9291 c 2.94084,-7.17352 4.43392,-12.11018 4.43392,-12.11018 0,0 -26.64887,3.92558 -48.03362,16.0017 l -4.77597,16.31456 -0.42518,-13.13672 a 67.458905,67.458905 0 0 0 -6.77167,5.10017 c -21.59618,18.62697 -33.01995,40.78042 -25.51567,49.48079 7.50428,8.70037 31.09492,0.65376 52.69113,-17.97321 6.69505,-5.77432 12.39293,-13.3307 17.07062,-21.00831 z"
     fill="#f2f2f2"
     style="stroke-width:0.496317"
     inkscape:export-xdpi="96"
     inkscape:export-ydpi="96" />
</svg>
